HIERARCHY
ROOT Hips
{
 OFFSET 0.000000 0.000000 0.000000
 CHANNELS 6 Xposition Yposition Zposition Yrotation Xrotation Zrotation
 JOINT Chest
 {
  OFFSET 0.000000 9.581000 -0.001100
  CHANNELS 3 Yrotation Xrotation Zrotation
  JOINT Chest2
  {
   OFFSET 0.000000 9.561100 0.002200
   CHANNELS 3 Yrotation Xrotation Zrotation
   JOINT Chest3
   {
    OFFSET 0.000000 9.521100 0.000000
    CHANNELS 3 Yrotation Xrotation Zrotation
    JOINT Chest4
    {
     OFFSET 0.000000 9.511400 0.000000
     CHANNELS 3 Yrotation Xrotation Zrotation
     JOINT Neck
     {
      OFFSET 0.000000 14.375100 0.000000
      CHANNELS 3 Yrotation Xrotation Zrotation
      JOINT Head
      {
       OFFSET 0.000000 8.901200 0.004600
       CHANNELS 3 Yrotation Xrotation Zrotation
       End Site
       {
        OFFSET 0.000000 16.962200 0.002400
       }
      }
     }
     JOINT RightCollar
     {
      OFFSET -2.920100 9.518800 0.000000
      CHANNELS 3 Yrotation Xrotation Zrotation
      JOINT RightShoulder
      {
       OFFSET -13.664500 0.000000 0.000000
       CHANNELS 3 Yrotation Xrotation Zrotation
       JOINT RightElbow
       {
        OFFSET 0.000000 -29.999200 0.000000
        CHANNELS 3 Yrotation Xrotation Zrotation
        JOINT RightWrist
        {
         OFFSET 0.000000 -24.253600 0.000000
         CHANNELS 3 Yrotation Xrotation Zrotation
         End Site
         {
          OFFSET 0.000000 -17.918900 0.000000
         }
        }
       }
      }
     }
     JOINT LeftCollar
     {
      OFFSET 2.920100 9.518800 0.000000
      CHANNELS 3 Yrotation Xrotation Zrotation
      JOINT LeftShoulder
      {
       OFFSET 13.664500 0.000000 0.000000
       CHANNELS 3 Yrotation Xrotation Zrotation
       JOINT LeftElbow
       {
        OFFSET 0.000000 -29.999200 0.000000
        CHANNELS 3 Yrotation Xrotation Zrotation
        JOINT LeftWrist
        {
         OFFSET 0.000000 -24.253600 0.000000
         CHANNELS 3 Yrotation Xrotation Zrotation
         End Site
         {
          OFFSET 0.000000 -17.918900 0.000000
         }
        }
       }
      }
     }
    }
   }
  }
 }
 JOINT RightHip
 {
  OFFSET -7.797300 0.005300 0.000500
  CHANNELS 3 Yrotation Xrotation Zrotation
  JOINT RightKnee
  {
   OFFSET 0.000000 -40.663400 -0.000500
   CHANNELS 3 Yrotation Xrotation Zrotation
   JOINT RightAnkle
   {
    OFFSET 0.000000 -39.523700 -0.000900
    CHANNELS 3 Yrotation Xrotation Zrotation
    JOINT RightToe
    {
     OFFSET 0.000000 -6.418000 14.485300
     CHANNELS 3 Yrotation Xrotation Zrotation
     End Site
     {
      OFFSET 0.000000 -1.465200 6.326400
     }
    }
   }
  }
 }
 JOINT LeftHip
 {
  OFFSET 7.797300 0.005300 0.000500
  CHANNELS 3 Yrotation Xrotation Zrotation
  JOINT LeftKnee
  {
   OFFSET 0.000000 -40.663400 -0.000500
   CHANNELS 3 Yrotation Xrotation Zrotation
   JOINT LeftAnkle
   {
    OFFSET 0.000000 -39.523700 -0.000900
    CHANNELS 3 Yrotation Xrotation Zrotation
    JOINT LeftToe
    {
     OFFSET 0.000000 -6.418000 14.485300
     CHANNELS 3 Yrotation Xrotation Zrotation
     End Site
     {
      OFFSET 0.000000 -1.465200 6.326400
     }
    }
   }
  }
 }
}
MOTION
Frames: 9
Frame Time: 0.008333
-9.829810 126.631372 5.266593 167.998330 -33.336841 -1.801911 3.185925 20.490442 1.076680 0.414047 2.615343 0.024852 0.610653 4.338878 0.174026 2.710725 17.548126 0.836854 5.567299 19.705262 0.526493 5.875162 -4.667228 -0.619252 -3.620055 -0.439991 1.786565 -8.824864 -8.269698 -1.992729 -93.258792 -19.406826 97.226337 -26.978304 -5.905234 -10.298539 -6.102224 -0.325405 2.746093 12.760392 -18.519190 -1.346196 82.207266 -30.713398 -79.972680 28.499435 -29.536618 16.351193 3.546092 -49.809345 4.328383 -60.251785 84.673280 -60.986776 12.334475 -20.627242 3.019817 -0.010056 0.001384 -0.004456 -7.376745 -43.527800 -1.878151 61.622486 81.839128 55.085361 2.754863 -6.775100 1.721342 -0.001094 -0.005070 -0.000485
-9.834632 126.632071 5.265290 168.043058 -33.343487 -1.826054 3.180118 20.476566 1.044116 0.412775 2.619520 0.023380 0.629615 4.309844 0.128828 2.709262 17.547624 0.857797 5.245895 19.798538 0.760902 5.470585 -4.597602 -0.301487 -3.603351 -0.429568 1.765330 -9.011269 -8.461706 -1.822809 -94.097764 -18.367337 96.651297 -27.670662 -6.950267 -10.376281 -6.099201 -0.339299 2.736987 12.753130 -18.470210 -1.334832 82.179049 -30.782628 -79.979230 28.524734 -29.558729 16.350702 3.491917 -49.782534 4.350550 -59.840430 84.624316 -60.572070 12.399298 -20.354604 3.017245 -0.015533 0.006283 -0.006883 -7.406308 -43.525076 -1.868110 61.582140 81.856109 55.028853 2.760155 -6.765265 1.733891 -0.005416 -0.003738 -0.002399
-9.832949 126.633657 5.264170 168.096809 -33.357458 -1.895795 3.202714 20.471077 1.033119 0.394694 2.627030 0.053390 0.635032 4.300090 0.111891 2.709667 17.524717 0.797608 4.934556 19.891136 1.053942 5.055746 -4.529661 0.020090 -3.575554 -0.414173 1.796268 -9.213659 -8.634263 -1.710563 -94.902479 -17.509446 96.117548 -28.223745 -7.772061 -10.401361 -6.101574 -0.310077 2.829005 12.771620 -18.448123 -1.383701 82.195733 -30.821519 -80.012472 28.507944 -29.558793 16.378986 3.297410 -49.691220 4.551242 -59.238058 84.461024 -60.006720 12.432052 -20.173030 2.980325 0.009410 0.059887 0.004174 -7.478959 -43.511555 -1.801624 61.542320 81.880077 54.975035 2.779890 -6.750795 1.744619 -0.024727 0.003571 -0.010956
-9.838155 126.631568 5.266781 168.124470 -33.333869 -1.916687 3.187966 20.446604 1.030065 0.416588 2.619963 0.024535 0.622364 4.302356 0.129323 2.715928 17.507039 0.744052 4.601327 19.971331 1.304182 4.633908 -4.460519 0.344072 -3.538821 -0.412155 1.784451 -9.444267 -8.783593 -1.651662 -95.662027 -16.894134 95.629326 -28.640359 -8.384688 -10.445997 -6.103040 -0.300080 2.876499 12.787158 -18.423282 -1.429814 82.206999 -30.855091 -80.040208 28.507104 -29.565499 16.394792 3.223890 -49.675805 4.641619 -58.470017 84.389745 -59.270603 12.394656 -19.976435 2.979538 0.005290 0.026744 0.002345 -7.492258 -43.538494 -1.774029 61.438214 81.912069 54.858343 2.771137 -6.740660 1.760600 -0.014944 0.003994 -0.006622
-9.846800 126.630675 5.266484 168.152673 -33.324748 -1.914292 3.192421 20.434218 0.985596 0.410886 2.612277 0.027226 0.613380 4.308645 0.143530 2.717569 17.487042 0.714084 4.259478 20.051052 1.534885 4.210020 -4.386548 0.668653 -3.492873 -0.398886 1.748303 -9.707484 -8.907114 -1.634576 -96.360993 -16.538861 95.190210 -28.943913 -8.815013 -10.543754 -6.098503 -0.311962 2.870647 12.788941 -18.376387 -1.439413 82.230969 -30.882898 -80.078198 28.477641 -29.547108 16.411566 3.207520 -49.658512 4.652440 -58.021097 84.372229 -58.861238 12.359930 -19.903370 3.009061 -0.008550 -0.002050 -0.003788 -7.470207 -43.552251 -1.792029 61.321563 81.936520 54.736864 2.768027 -6.726218 1.778304 -0.013617 0.002242 -0.006034
-9.851360 126.631148 5.265177 168.173918 -33.330110 -1.929995 3.205163 20.430975 0.967035 0.407853 2.603823 0.029908 0.615295 4.308287 0.136656 2.715871 17.469361 0.708372 3.916852 20.132682 1.766120 3.786926 -4.307735 0.993669 -3.442226 -0.366189 1.706471 -10.002108 -9.002858 -1.646088 -96.995061 -16.404106 94.803976 -29.164428 -9.094674 -10.696982 -6.055773 -0.349460 2.819659 12.740257 -18.303276 -1.398508 82.278641 -30.843666 -80.133325 28.383919 -29.519627 16.431927 3.118413 -49.628545 4.770520 -57.816644 84.313725 -58.751599 12.352551 -19.754949 3.058955 -0.001048 -0.000824 -0.000464 -7.422958 -43.539976 -1.788960 61.091643 81.973081 54.526434 2.752336 -6.721336 1.797745 -0.002456 0.001581 -0.001088
-9.856139 126.630933 5.264937 168.207540 -33.328993 -1.951145 3.227762 20.400525 0.932826 0.374164 2.623313 0.070010 0.644323 4.266497 0.086698 2.708052 17.480017 0.735941 3.576597 20.212502 1.997872 3.367773 -4.228207 1.318599 -3.395147 -0.320474 1.660845 -10.317075 -9.070978 -1.677779 -97.560458 -16.415674 94.470061 -29.343680 -9.257399 -10.886606 -6.036160 -0.341132 2.816812 12.738392 -18.257527 -1.415668 82.301231 -30.817030 -80.173864 28.437035 -29.540561 16.404129 3.020903 -49.611644 4.861549 -57.679431 84.243606 -58.697570 12.373344 -19.613061 3.116156 0.001910 -0.010195 0.000846 -7.421272 -43.536779 -1.786343 60.978741 81.989447 54.423004 2.743828 -6.721124 1.807463 0.003742 0.002944 0.001658
-9.860512 126.630487 5.265369 168.266850 -33.325431 -1.987917 3.205026 20.382124 0.921525 0.362697 2.628930 0.080253 0.654605 4.250708 0.071910 2.708536 17.468927 0.726268 3.242694 20.286054 2.227038 2.957113 -4.152977 1.639346 -3.357114 -0.271822 1.611611 -10.645215 -9.111810 -1.722921 -98.051691 -16.497239 94.188380 -29.512526 -9.350215 -11.094439 -6.014948 -0.332706 2.813072 12.736282 -18.212971 -1.429178 82.310218 -30.799548 -80.208404 28.478014 -29.547628 16.381073 2.953906 -49.605134 4.866965 -57.505186 84.179429 -58.552205 12.466712 -19.449589 3.163066 -0.003573 -0.024479 -0.001582 -7.443953 -43.537385 -1.783933 60.889071 82.004539 54.344368 2.737472 -6.718686 1.810342 0.009240 0.007029 0.004095
-9.865187 126.630103 5.265756 168.289215 -33.325357 -2.000894 3.209284 20.367216 0.908863 0.386022 2.605941 0.053526 0.624664 4.275860 0.108576 2.709167 17.463985 0.721505 2.917024 20.339648 2.428423 2.558547 -4.083660 1.950422 -3.340356 -0.248148 1.585749 -10.964570 -9.129420 -1.821288 -98.466655 -16.590148 93.961126 -29.674999 -9.427848 -11.323102 -6.004267 -0.329638 2.810652 12.761829 -18.178930 -1.461570 82.313452 -30.774518 -80.237927 28.452844 -29.534025 16.369416 2.931327 -49.600641 4.860298 -57.406582 84.094283 -58.471550 12.553573 -19.251942 3.214839 -0.004921 -0.031905 -0.002179 -7.435795 -43.536333 -1.788715 60.814124 82.016494 54.271492 2.734980 -6.713125 1.820181 0.008270 0.007261 0.003664
